<?xml version="1.0" standalone="no"?>
<!DOCTYPE svg PUBLIC "-//W3C//DTD SVG 20010904//EN"
 "http://www.w3.org/TR/2001/REC-SVG-20010904/DTD/svg10.dtd">
<svg version="1.0" xmlns="http://www.w3.org/2000/svg"
 width="800.000000pt" height="800.000000pt" viewBox="0 0 800.000000 800.000000"
 preserveAspectRatio="xMidYMid meet">
<metadata>
Created by potrace 1.14, written by Peter Selinger 2001-2017
</metadata>
<g transform="translate(0.000000,800.000000) scale(0.100000,-0.100000)"
fill="#000000" stroke="none">
<path d="M4215 7431 c-3 -6 39 -76 93 -158 81 -122 145 -222 232 -363 38 -62
139 -238 171 -295 20 -38 55 -101 76 -140 l38 -69 85 -2 c209 -3 393 -102 502
-270 l42 -65 85 6 c47 4 102 8 121 10 40 4 248 14 395 20 55 2 225 4 378 5
152 0 277 3 277 8 0 4 -13 21 -28 38 -15 17 -56 66 -92 108 -75 88 -282 293
-355 351 -27 22 -54 45 -60 51 -15 17 -158 123 -250 186 -419 285 -933 483
-1435 552 -19 3 -51 7 -70 10 -20 3 -69 8 -110 12 -41 3 -78 8 -82 10 -4 3 -9
0 -13 -5z"/>
<path d="M3634 7332 c-60 -125 -166 -364 -211 -472 -19 -47 -41 -98 -48 -115
-38 -87 -205 -543 -219 -600 -2 -5 -6 -17 -9 -25 -3 -8 -18 -55 -33 -105 -14
-49 -35 -117 -45 -149 -11 -33 -19 -64 -19 -70 0 -6 16 -22 35 -34 19 -13 56
-47 82 -75 26 -29 53 -50 58 -48 24 8 330 92 440 121 125 32 474 113 535 124
116 20 116 20 130 74 18 67 75 181 110 221 17 18 30 36 30 39 0 13 -256 470
-270 482 -3 3 -19 28 -35 55 -79 138 -423 647 -448 662 -28 17 -39 6 -83 -85z"/>
<path d="M3145 7333 c-183 -53 -230 -68 -305 -94 -205 -74 -468 -198 -620
-294 -177 -112 -242 -158 -395 -279 -131 -104 -398 -373 -509 -511 -89 -113
-161 -214 -154 -220 2 -2 321 -84 428 -109 8 -2 35 -9 60 -16 25 -7 52 -14 60
-16 23 -5 172 -48 290 -84 58 -17 137 -41 175 -52 l71 -20 66 65 c74 73 191
137 285 158 32 7 59 13 61 14 1 1 21 65 43 141 110 380 301 897 451 1223 21
47 37 89 36 95 -2 8 -15 8 -43 -1z"/>
<path d="M5958 5705 c-2 -2 -53 -7 -113 -9 -113 -6 -265 -16 -300 -21 -11 -1
-28 -3 -37 -4 -10 -1 -19 -13 -23 -33 -16 -74 -84 -190 -147 -249 l-38 -36 89
-269 c49 -148 110 -345 136 -439 25 -93 48 -178 51 -187 3 -10 21 -19 46 -23
112 -19 229 -80 313 -163 l50 -49 170 49 c94 26 179 50 190 53 11 2 29 6 40 9
288 72 430 105 565 132 153 30 288 55 345 64 113 18 105 7 83 113 -10 50 -21
107 -24 126 -3 19 -10 45 -15 58 -5 13 -6 23 -3 23 2 0 0 8 -5 19 -6 10 -13
31 -15 47 -9 49 -85 272 -132 386 -51 125 -156 341 -184 378 l-19 25 -509 2
c-280 1 -511 0 -514 -2z"/>
<path d="M930 5561 c0 -5 -22 -55 -49 -112 -129 -271 -242 -642 -277 -903 l-6
-49 58 33 c231 131 906 480 927 480 3 0 43 18 89 39 104 49 356 161 362 161 2
0 25 10 52 21 l48 22 -60 19 c-235 75 -750 213 -1014 272 -129 29 -130 29
-130 17z"/>
<path d="M4315 5502 c-346 -68 -985 -235 -985 -257 0 -6 75 -44 168 -84 365
-161 727 -346 1129 -577 120 -69 264 -157 361 -221 l114 -74 44 28 c24 15 44
34 44 41 0 43 -162 576 -239 788 l-23 61 -46 2 c-181 4 -362 108 -472 270
l-25 37 -70 -14z"/>
<path d="M2150 4826 c-69 -29 -160 -70 -203 -90 -43 -20 -80 -36 -82 -36 -7 0
-248 -116 -410 -197 -241 -122 -401 -206 -565 -300 -149 -86 -232 -134 -275
-160 l-50 -30 1 -129 c1 -140 14 -302 30 -386 3 -15 7 -39 9 -55 2 -15 13 -75
25 -133 121 -600 409 -1167 825 -1626 l31 -33 29 27 c17 15 77 68 135 117 58
50 107 92 110 96 3 3 43 36 90 74 47 38 87 72 90 75 3 3 43 36 90 73 47 37
101 80 120 95 19 16 108 83 197 151 136 102 161 126 157 144 -8 42 -24 132
-29 162 -3 17 -8 46 -11 65 -4 19 -8 45 -9 58 -2 12 -8 53 -14 90 -5 37 -13
90 -16 117 -3 28 -8 66 -10 85 -2 19 -7 71 -10 115 -4 44 -8 91 -10 104 -23
145 -23 819 0 1066 2 22 6 68 9 103 10 105 17 175 24 232 l7 55 -40 27 c-22
15 -57 43 -78 62 -20 20 -38 36 -40 36 -1 0 -58 -24 -127 -54z"/>
<path d="M3160 4861 c0 -15 -115 -97 -173 -125 -29 -13 -75 -30 -103 -37 -27
-6 -52 -14 -56 -18 -8 -8 -22 -106 -33 -233 -3 -38 -7 -96 -10 -130 -3 -35 -8
-103 -11 -153 -6 -106 -6 -650 0 -682 3 -12 7 -72 11 -134 4 -61 8 -120 10
-131 2 -10 7 -50 10 -88 3 -38 8 -77 9 -87 2 -10 7 -43 11 -73 9 -72 12 -92
25 -172 l12 -67 56 35 c32 20 64 42 72 49 69 56 563 352 880 528 84 46 505
258 595 299 202 93 257 117 350 157 l100 42 2 47 3 47 -110 70 c-495 315 -983
576 -1509 806 -149 65 -141 63 -141 50z"/>
<path d="M7345 4134 c-33 -7 -76 -15 -95 -19 -19 -3 -82 -15 -140 -26 -58 -11
-116 -23 -130 -25 -241 -47 -848 -206 -861 -226 -3 -5 -7 -30 -8 -55 0 -25
-12 -77 -26 -117 l-24 -71 28 -25 c15 -14 79 -69 142 -122 63 -53 123 -105
134 -115 12 -10 63 -56 115 -103 144 -128 235 -216 456 -438 l202 -204 21 47
c89 201 199 566 227 751 3 22 7 50 10 64 2 14 6 45 9 70 3 25 8 54 10 65 11
55 19 209 19 374 1 209 8 196 -89 175z"/>
<path d="M4945 3423 c-317 -139 -734 -345 -970 -478 -66 -37 -140 -79 -165
-93 -68 -37 -207 -121 -282 -169 -37 -24 -70 -43 -73 -43 -3 0 -27 -15 -53
-33 -26 -19 -52 -36 -57 -38 -6 -2 -97 -62 -203 -133 -135 -90 -191 -133 -187
-144 3 -7 8 -26 11 -40 43 -190 178 -597 278 -842 102 -247 277 -610 372 -770
39 -64 39 -65 89 -69 85 -8 516 -6 605 2 47 4 126 14 175 22 50 7 106 16 125
19 139 21 435 102 576 156 43 16 84 30 90 30 18 0 43 33 48 65 2 17 8 55 12
85 4 30 8 57 9 60 1 3 5 34 9 70 5 36 10 72 11 80 2 8 6 44 10 80 3 36 8 76
10 90 2 14 6 52 9 85 4 33 8 83 11 110 29 287 43 825 30 1120 -7 159 -16 322
-19 350 -2 17 -7 71 -11 120 -4 50 -9 99 -11 110 -1 11 -3 23 -3 27 -1 4 -26
14 -56 23 -74 21 -168 77 -235 140 l-55 52 -100 -44z"/>
<path d="M5785 3278 c5 -16 13 -91 20 -193 3 -44 8 -93 10 -110 25 -176 25
-1171 0 -1327 -2 -12 -6 -64 -10 -114 -3 -49 -7 -101 -9 -115 -3 -13 -7 -58
-11 -99 -10 -109 -23 -222 -31 -263 -3 -16 0 -16 34 4 258 152 553 397 775
642 113 124 315 396 362 487 l15 29 -288 289 c-301 303 -399 395 -587 557 -38
33 -79 68 -90 78 -11 10 -38 33 -59 50 -22 18 -56 47 -76 65 -38 33 -62 42
-55 20z"/>
<path d="M2505 1979 c-285 -223 -491 -393 -692 -573 -18 -16 -30 -33 -27 -37
3 -5 53 -46 112 -92 306 -238 660 -425 1024 -542 190 -61 203 -65 215 -65 6 0
-11 43 -37 96 -42 82 -87 180 -171 369 -88 197 -207 532 -279 780 -21 71 -42
130 -46 132 -5 1 -49 -30 -99 -68z"/>
</g>
</svg>
